<svg id="Layer_1" data-name="Layer 1" xmlns="http://www.w3.org/2000/svg" viewBox="0 0 17.17 17.17"><defs><style>.cls-1{fill:#32a590;}.cls-2{fill:#fff;}</style></defs><circle class="cls-1" cx="8.59" cy="8.59" r="8.59"/><path class="cls-2" d="M301.38,393.76l.72-.72,1.13-1.13.26-.26h-1l.72.72,1.13,1.13.27.26a.66.66,0,0,0,.48.2.69.69,0,0,0,.48-.2.71.71,0,0,0,.19-.48.66.66,0,0,0-.19-.48l-.72-.71L303.75,391l-.26-.26a.69.69,0,0,0-1,0l-.71.72-1.14,1.13-.26.26a.72.72,0,0,0-.2.48.7.7,0,0,0,.2.48.67.67,0,0,0,.48.2.72.72,0,0,0,.48-.2Z" transform="translate(-297.16 -387.18)"/><path class="cls-2" d="M302.33,391.17V399h0a.72.72,0,0,0,.2.48.67.67,0,0,0,.48.2.7.7,0,0,0,.48-.2.67.67,0,0,0,.2-.48v-7.83h0a.67.67,0,0,0-.2-.48.66.66,0,0,0-.48-.2.74.74,0,0,0-.48.2.72.72,0,0,0-.2.48Z" transform="translate(-297.16 -387.18)"/><path class="cls-2" d="M305.87,399.09l.72.72,1.13,1.13.26.26a.69.69,0,0,0,1,0l.72-.71,1.14-1.14.26-.26a.7.7,0,0,0,.2-.48.74.74,0,0,0-.2-.48.68.68,0,0,0-1,0l-.72.72L308.25,400l-.27.26h1l-.72-.71-1.14-1.14-.26-.26a.7.7,0,0,0-.48-.2.74.74,0,0,0-.48.2.68.68,0,0,0,0,1Z" transform="translate(-297.16 -387.18)"/><path class="cls-2" d="M309.14,400.72v-7.84a.69.69,0,0,0-.2-.48.71.71,0,0,0-.48-.19.66.66,0,0,0-.48.19.74.74,0,0,0-.2.48v7.83h0a.7.7,0,0,0,.2.48.67.67,0,0,0,.48.2.66.66,0,0,0,.48-.2.7.7,0,0,0,.2-.48Z" transform="translate(-297.16 -387.18)"/></svg>