<svg xmlns="http://www.w3.org/2000/svg" viewBox="0 0 166.17 18.81"><path d="M529.62,351.91a10.28,10.28,0,0,1-5.87,1.82c-5.08,0-8-4.15-8-9.24v-.34c0-.26,0-.51,0-.76h2.57c.23-3.06,2.1-6.05,5.26-6.05a5.93,5.93,0,0,1,3.49,1l.71-1.27a7.82,7.82,0,0,0-4.27-1.11c-3.65,0-5.87,2.79-6.54,6.05h-1c.72-3.8,3.34-7.08,7.59-7.08a8.78,8.78,0,0,1,5.63,1.82l-1.71,3.06a5.78,5.78,0,0,0-3.85-1.44c-2.73,0-4.27,2.93-4.27,5.79v.27h-2.56v.07c0,4.29,2.3,8.21,7,8.21a9.07,9.07,0,0,0,4.52-1.17l-.69-1.3a7.43,7.43,0,0,1-3.73,1.08c-3.34,0-5.07-2.6-5.46-5.51h1c.34,2.34,1.68,4.49,4.42,4.49a7.48,7.48,0,0,0,4.13-1.51Z" transform="translate(-515.74 -334.92)"/><path d="M534.31,338.63v13.82h1.54V340h1v13.45h-3.59V337.61h2.57v-1.4h-2.57v-1h3.59v3.44Z" transform="translate(-515.74 -334.92)"/><path d="M553.66,335.19v3.44h-3.22v-1h2.19v-1.4H548.9v17.26h-3.59V336.21h-3.75v1.4h2.21v1h-3.23v-3.44h5.8v17.26h1.53V335.19Z" transform="translate(-515.74 -334.92)"/><path d="M558.35,338.63v13.82h1.54V340h1v13.45h-3.59V337.61h2.57v-1.4h-2.57v-1h3.59v3.44Z" transform="translate(-515.74 -334.92)"/><path d="M577.42,350v3.44H566.1V335.19h11.15v3.44h-7.56v2.14h-1v-3.16h7.55v-1.4h-9.09v16.24h9.26v-1.39h-7.72v-8.9H577v3.44h-5.74v-1h4.71v-1.4h-6.25V350Z" transform="translate(-515.74 -334.92)"/><path d="M593.07,348.34c0,3.56-2.79,5.39-6.66,5.39A12.85,12.85,0,0,1,580,352l1.25-3.3a11.56,11.56,0,0,0,5.13,1.56c2,0,3.07-.59,3.07-2,0-2.36-1.57-3-3.12-3.84s-3-1.71-3-4.1c0-1.57,1.08-3.06,3.78-3.06a9.23,9.23,0,0,1,3.67.8l.51-1.4a8.54,8.54,0,0,0-4.19-.79c-2.91,0-5.31,1.5-5.31,4.46a5.27,5.27,0,0,0,3.37,5.06l-.35,1a6.26,6.26,0,0,1-4-6c0-3.63,3-5.49,6.33-5.49a9.91,9.91,0,0,1,5.47,1.31l-1.22,3.32a9,9,0,0,0-4.24-1.19c-1.81,0-2.75.75-2.75,2,0,1.88,1.18,2.49,2.51,3.21,1.7.92,3.64,1.82,3.64,4.73,0,1.11-.53,3-4.1,3a11,11,0,0,1-4.57-1.17l-.52,1.39a11.25,11.25,0,0,0,5.09,1.17c2.85,0,5.64-1.09,5.64-4.36,0-2.76-1.31-4.59-4.24-5.8l.34-1C591.34,342.87,593.07,345,593.07,348.34Z" transform="translate(-515.74 -334.92)"/><path d="M621.85,353.47H618.1l-1.65-4.55H607.7l-1.28,3.53H608l.78-2.14h1.09l-1.15,3.16H605l2-5.57h10.19l1.65,4.55h1.56l-5.9-16.24h-2.15L609,345.48h6.25l-1.81-5-1.3,3.58H611l2.39-6.58,3.27,9h-9.18l4.12-11.31h3.59Z" transform="translate(-515.74 -334.92)"/><path d="M635.58,335.19v3.44h-3.22v-1h2.2v-1.4h-3.74v17.26h-3.58V336.21h-3.75v1.4h2.21v1h-3.24v-3.44h5.8v17.26h1.54V335.19Z" transform="translate(-515.74 -334.92)"/><path d="M649.05,350v3.44H638.94v-1H648v-1.39h-9.09V335.19h3.59v13.45h-1V336.21H640V350Z" transform="translate(-515.74 -334.92)"/><path d="M667.47,353.47h-3.74l-1.65-4.55h-8.75L652,352.45h1.56l.78-2.14h1.08l-1.14,3.16h-3.74l2-5.57H662.8l1.65,4.55H666l-5.91-16.24H658l-3.37,9.27h6.25l-1.8-5-1.31,3.58h-1.09l2.4-6.58,3.27,9h-9.18l4.11-11.31h3.59Z" transform="translate(-515.74 -334.92)"/><path d="M681.91,348.34c0,3.56-2.8,5.39-6.67,5.39a12.81,12.81,0,0,1-6.37-1.7l1.24-3.3a11.6,11.6,0,0,0,5.13,1.56c2,0,3.08-.59,3.08-2,0-2.36-1.58-3-3.13-3.84s-3-1.71-3-4.1c0-1.57,1.07-3.06,3.78-3.06a9.15,9.15,0,0,1,3.66.8l.51-1.4a8.5,8.5,0,0,0-4.18-.79c-2.92,0-5.31,1.5-5.31,4.46a5.27,5.27,0,0,0,3.37,5.06l-.36,1a6.26,6.26,0,0,1-4-6c0-3.63,3-5.49,6.34-5.49a9.94,9.94,0,0,1,5.47,1.31l-1.22,3.32a9,9,0,0,0-4.24-1.19c-1.82,0-2.76.75-2.76,2,0,1.88,1.18,2.49,2.52,3.21,1.69.92,3.63,1.82,3.63,4.73,0,1.11-.52,3-4.1,3a11,11,0,0,1-4.56-1.17l-.53,1.39a11.28,11.28,0,0,0,5.09,1.17c2.86,0,5.64-1.09,5.64-4.36,0-2.76-1.3-4.59-4.23-5.8l.34-1C680.17,342.87,681.91,345,681.91,348.34Z" transform="translate(-515.74 -334.92)"/></svg>