<svg xmlns="http://www.w3.org/2000/svg" viewBox="0 0 119.97 16.65"><path fill="#fff" d="M337.19,372.45a9.1,9.1,0,0,1-5.2,1.61c-4.49,0-7.09-3.68-7.09-8.18v-.3c0-.23,0-.46,0-.67h2.27c.21-2.71,1.86-5.36,4.66-5.36a5.31,5.31,0,0,1,3.09.87l.63-1.12a7,7,0,0,0-3.78-1c-3.23,0-5.2,2.47-5.79,5.36h-.93c.63-3.36,3-6.27,6.72-6.27a7.79,7.79,0,0,1,5,1.61l-1.51,2.71a5.11,5.11,0,0,0-3.41-1.27c-2.42,0-3.78,2.59-3.78,5.12v.24h-2.27v.06c0,3.79,2,7.27,6.18,7.27a8,8,0,0,0,4-1l-.61-1.15a6.59,6.59,0,0,1-3.3,1c-2.95,0-4.49-2.3-4.83-4.88h.92c.3,2.07,1.49,4,3.91,4a6.54,6.54,0,0,0,3.66-1.34Z" transform="translate(-324.9 -357.41)"/><path fill="#fff" d="M341.34,360.69v12.23h1.36v-11h.91v11.9h-3.18v-14h2.27v-1.23h-2.27v-.91h3.18v3Z" transform="translate(-324.9 -357.41)"/><path fill="#fff" d="M358.46,357.65v3h-2.85v-.9h1.95v-1.23h-3.31v15.27h-3.17V358.56h-3.32v1.23h1.95v.9h-2.86v-3H352v15.27h1.36V357.65Z" transform="translate(-324.9 -357.41)"/><path fill="#fff" d="M374,357.65l-5.23,9.56v6.62h-3.17V369h.91v3.93h1.36V367l4.6-8.41h-1.52l-5,9.2-5.55-10.11h3.58l2.48,4.54-.52.93-2.49-4.56h-1.52l4,7.31,4.5-8.22Z" transform="translate(-324.9 -357.41)"/><path fill="#fff" d="M389.6,357.65l-5.8,16.18h-.6l-5.41-15.27h-1.43l5.49,15.27h-1l-5.81-16.18h3.35L383.5,372l4.81-13.4h-1.43l-3.38,9.53-.47-1.37,3.22-9.07Z" transform="translate(-324.9 -357.41)"/><path fill="#fff" d="M402.32,370.78v3.05h-10V357.65h9.87v3h-6.69v1.89h-.91v-2.79h6.69v-1.23h-8.05v14.36h8.2v-1.23h-6.84v-7.87h7.35v3h-5.08V366H401v-1.24h-5.53v6.06Z" transform="translate(-324.9 -357.41)"/><path fill="#fff" d="M417.49,362.78a4.84,4.84,0,0,1-2.37,4.41l-.53-.73a4,4,0,0,0,2-3.68c0-2.6-1.93-4.22-4.89-4.22H407v14.36h1.36v-7.86h.94l5.78,7.86h1.6l-5.83-7.86h.88c2,0,2.57-1.07,2.57-2.28s-1-2.09-2.46-2.09h-2.57v3.14h-.91v-4h3.48c2,0,3.37,1.17,3.37,3a2.9,2.9,0,0,1-2.61,3.11l5.88,7.94h-3.87l-5.34-7.29v7.29H406.1V357.65h5.59C415.41,357.65,417.49,359.91,417.49,362.78Z" transform="translate(-324.9 -357.41)"/><path fill="#fff" d="M431.34,369.28c0,3.16-2.47,4.78-5.9,4.78a11.39,11.39,0,0,1-5.64-1.5l1.11-2.93a10.18,10.18,0,0,0,4.53,1.38c1.75,0,2.73-.52,2.73-1.73,0-2.08-1.4-2.64-2.77-3.39s-2.68-1.51-2.68-3.63c0-1.39.95-2.71,3.35-2.71a8.26,8.26,0,0,1,3.24.71l.46-1.24a7.63,7.63,0,0,0-3.71-.7c-2.58,0-4.7,1.33-4.7,3.95a4.64,4.64,0,0,0,3,4.47l-.31.86a5.55,5.55,0,0,1-3.58-5.33c0-3.22,2.62-4.86,5.61-4.86a8.68,8.68,0,0,1,4.84,1.16l-1.08,2.93a8,8,0,0,0-3.75-1c-1.61,0-2.44.66-2.44,1.8,0,1.66,1.05,2.2,2.22,2.84,1.51.81,3.22,1.61,3.22,4.18,0,1-.46,2.64-3.63,2.64a9.75,9.75,0,0,1-4-1l-.46,1.23a9.89,9.89,0,0,0,4.5,1,6.12,6.12,0,0,0,3.69-1,3.4,3.4,0,0,0,1.3-2.85c0-2.44-1.15-4.06-3.74-5.13l.3-.85C429.81,364.44,431.34,366.3,431.34,369.28Z" transform="translate(-324.9 -357.41)"/><path fill="#fff" d="M444.87,370.78v3.05h-10V357.65h9.86v3H438v1.89h-.91v-2.79h6.69v-1.23h-8.05v14.36H444v-1.23h-6.84v-7.87h7.35v3h-5.08V366h4.17v-1.24H438v6.06Z" transform="translate(-324.9 -357.41)"/></svg>