<svg xmlns="http://www.w3.org/2000/svg" viewBox="0 0 28.53 36.78"><path d="M796.44,416.2h-.06a.49.49,0,0,1-.33-.07,33.68,33.68,0,0,1-9.9-10.47c-2.56-4.17-4-8.53-4-12a14.27,14.27,0,1,1,28.53,0c0,3.43-1.47,7.79-4,12a33.59,33.59,0,0,1-9.91,10.47A.5.5,0,0,1,796.44,416.2Zm-.05-35.79a13.3,13.3,0,0,0-13.28,13.28c0,6.87,6.06,16.64,13.27,21.46,7.22-4.82,13.28-14.59,13.28-21.46A13.3,13.3,0,0,0,796.39,380.41Z" transform="translate(-782.12 -379.42)"/><path d="M803.57,404h-9.84a.37.37,0,0,1-.37-.37v-15.9a.37.37,0,0,1,.37-.38h9.84a.38.38,0,0,1,.38.38v15.9A.38.38,0,0,1,803.57,404Zm-9.46-.75h9.08V388.14h-9.08Z" transform="translate(-782.12 -379.42)"/><path d="M802.06,388.14h-6.81a.38.38,0,0,1-.38-.38v-1.51a.38.38,0,0,1,.38-.38h6.81a.38.38,0,0,1,.38.38v1.51A.38.38,0,0,1,802.06,388.14Zm-6.43-.76h6v-.75h-6Z" transform="translate(-782.12 -379.42)"/><path d="M793.73,404h-4.54a.38.38,0,0,1-.38-.37V391.55a.38.38,0,0,1,.38-.38h4.54a.38.38,0,0,1,.38.38v12.11A.38.38,0,0,1,793.73,404Zm-4.16-.75h3.79V391.92h-3.79Z" transform="translate(-782.12 -379.42)"/><rect x="13.13" y="9.48" width="0.76" height="0.76"/><rect x="16.16" y="9.48" width="0.76" height="0.76"/><rect x="19.18" y="9.48" width="0.76" height="0.76"/><rect x="13.13" y="12.51" width="0.76" height="0.76"/><rect x="16.31" y="12.61" width="0.76" height="0.76"/><rect x="19.18" y="12.51" width="0.76" height="0.76"/><rect x="13.13" y="15.53" width="0.76" height="0.76"/><rect x="16.16" y="15.53" width="0.76" height="0.76"/><rect x="19.18" y="15.53" width="0.76" height="0.76"/><rect x="13.13" y="18.56" width="0.76" height="0.76"/><rect x="16.16" y="18.56" width="0.76" height="0.76"/><rect x="19.18" y="18.56" width="0.76" height="0.76"/><path d="M800.17,404h-3a.38.38,0,0,1-.38-.37v-3.79a.38.38,0,0,1,.38-.38h3a.38.38,0,0,1,.38.38v3.79A.38.38,0,0,1,800.17,404Zm-2.65-.75h2.27v-3h-2.27Z" transform="translate(-782.12 -379.42)"/><path d="M805.09,404H787.68a.38.38,0,1,1,0-.75h17.41a.38.38,0,1,1,0,.75Z" transform="translate(-782.12 -379.42)"/></svg>