<svg xmlns="http://www.w3.org/2000/svg" viewBox="0 0 11.5 11.5"><path class="st1" d="M0.2,0.7C0,0.6,0,0.3,0.1,0.2C0.2,0,0.5,0,0.6,0.1c0,0,0.1,0.1,0.1,0.1l0,0l3.6,3.6V2c0-0.2,0.2-0.4,0.4-0.4 C4.9,1.6,5,1.8,5,2v2.7C5,4.9,4.9,5,4.7,5c0,0,0,0,0,0H2C1.8,5,1.6,4.8,1.6,4.6c0-0.2,0.2-0.3,0.3-0.3h1.8L0.2,0.7z M0.7,11.4 l3.6-3.6v1.8c0,0.2,0.2,0.4,0.4,0.4C4.8,10,5,9.8,5,9.6V6.9c0-0.2-0.2-0.4-0.4-0.4c0,0,0,0,0,0H1.9C1.7,6.6,1.6,6.8,1.6,7 c0,0.2,0.2,0.3,0.3,0.3h1.8l-3.6,3.6C0,11,0,11.3,0.1,11.4C0.3,11.6,0.5,11.6,0.7,11.4L0.7,11.4z M7,10c0.2,0,0.4-0.2,0.4-0.4V7.8 l3.5,3.6c0.1,0.1,0.4,0.2,0.5,0c0,0,0,0,0,0c0.1-0.1,0.1-0.4,0-0.5c0,0,0,0,0,0L7.9,7.3h1.8c0.2,0,0.4-0.2,0.3-0.4 c0-0.2-0.2-0.3-0.3-0.3H7c-0.2,0-0.4,0.2-0.4,0.4c0,0,0,0,0,0v2.7C6.6,9.8,6.7,10,7,10C7,10,7,10,7,10z M6.6,4.8C6.7,4.9,6.8,5,7,5 h2.7C9.9,5,10,4.8,10,4.5c0-0.2-0.2-0.3-0.3-0.3H7.9l3.6-3.6c0.1-0.1,0.2-0.4,0-0.5c0,0,0,0,0,0C11.3,0,11,0,10.9,0.1c0,0,0,0,0,0 l0,0L7.3,3.7V1.9c0-0.2-0.2-0.4-0.4-0.4S6.6,1.7,6.6,1.9l0,0v2.7C6.6,4.7,6.6,4.7,6.6,4.8L6.6,4.8z"/></svg>
