<svg xmlns="http://www.w3.org/2000/svg" viewBox="0 0 11.52 11.52"><g><path d="M718.65,448.58a.39.39,0,1,1-.54.55h0l-3.56-3.57v1.76a.4.4,0,0,1-.39.39.39.39,0,0,1-.38-.39v-2.68a.38.38,0,0,1,.38-.39h2.69a.39.39,0,0,1,0,.77h-1.76Zm-.55,2.3-3.56,3.57v-1.76a.4.4,0,0,0-.39-.39.39.39,0,0,0-.38.39v2.68a.38.38,0,0,0,.38.39h2.69a.39.39,0,0,0,0-.77h-1.76l3.57-3.57a.39.39,0,0,0,0-.54A.4.4,0,0,0,718.1,450.88Zm6.8,1.42a.39.39,0,0,0-.38.39v1.76L721,450.88a.38.38,0,0,0-.54,0,.37.37,0,0,0,0,.53L724,455h-1.76a.39.39,0,0,0,0,.77h2.69a.38.38,0,0,0,.38-.39v-2.68A.39.39,0,0,0,724.9,452.3Zm.35-7.82a.37.37,0,0,0-.35-.24h-2.69a.39.39,0,0,0,0,.77H724l-3.56,3.57a.37.37,0,0,0,0,.54.38.38,0,0,0,.54,0h0l3.57-3.57v1.76a.38.38,0,1,0,.76,0v-2.68A.4.4,0,0,0,725.25,444.48Z" transform="translate(-713.77 -444.24)"/></g></svg>