<svg id="Layer_1" data-name="Layer 1" xmlns="http://www.w3.org/2000/svg" viewBox="0 0 24.42 24.42"><defs><style>.cls-1{fill:#2f363f;}</style></defs><path class="cls-1" d="M286.08,395a12.21,12.21,0,1,0,12.21,12.21A12.24,12.24,0,0,0,286.08,395Zm0,23.47a11.25,11.25,0,1,1,11.23-11.26A11.28,11.28,0,0,1,286.08,418.5Z" transform="translate(-273.86 -395.03)"/><path class="cls-1" d="M286.7,406.32a4.87,4.87,0,0,1-1.81-.94,1.77,1.77,0,0,1-.5-1.3,1.7,1.7,0,0,1,1.91-1.88,1.69,1.69,0,0,1,1.44.71,3,3,0,0,1,.5,1.8h1.61a4.29,4.29,0,0,0-.77-2.64,3,3,0,0,0-2.14-1.17v-1.85h-1.31v1.81a3.33,3.33,0,0,0-2.14,1,3.2,3.2,0,0,0-.77,2.21,3,3,0,0,0,.83,2.25,6,6,0,0,0,2.52,1.34,4.87,4.87,0,0,1,1.74.93,1.8,1.8,0,0,1,.53,1.28,1.72,1.72,0,0,1-.6,1.4,2.44,2.44,0,0,1-1.64.51,2.34,2.34,0,0,1-1.57-.54,2.48,2.48,0,0,1-.57-1.81h-1.58v0a3.29,3.29,0,0,0,.87,2.58,3.7,3.7,0,0,0,2.31,1v1.58h1.31v-1.58a3.58,3.58,0,0,0,2.31-1,3.44,3.44,0,0,0,0-4.46A6.82,6.82,0,0,0,286.7,406.32Z" transform="translate(-273.86 -395.03)"/></svg>