<svg xmlns="http://www.w3.org/2000/svg" viewBox="0 0 19.17 13.94"><g><path d="M49.08,42.08a.44.44,0,0,0-.44.44V54.28a.44.44,0,0,0,.44.43H61.94a3.26,3.26,0,1,0,4.13-4.84V42.52a.44.44,0,0,0-.43-.44Zm0,.44H65.64v7.16a3.29,3.29,0,0,0-1.09-.19,3.43,3.43,0,0,0-1,.14L60.34,46.5a.22.22,0,0,0-.31,0l-4,4.42-3.19-2.69a.22.22,0,0,0-.27,0L49.08,51Zm6.32,1.74a1.53,1.53,0,1,0,1.52,1.52A1.53,1.53,0,0,0,55.4,44.26Zm0,.43a1.09,1.09,0,0,1,0,2.18,1.09,1.09,0,0,1,0-2.18ZM60.2,47l2.95,2.83a3.26,3.26,0,0,0-1.49,4.48H49.08V51.55l3.62-2.87,3.21,2.71a.21.21,0,0,0,.3,0l4-4.4Zm4.35,3a2.84,2.84,0,1,1-2.83,2.83A2.83,2.83,0,0,1,64.55,49.92Zm0,1.09a.22.22,0,0,0-.22.22v2.52L63.61,53a.23.23,0,0,0-.31,0,.24.24,0,0,0,0,.32l1.1,1.09a.22.22,0,0,0,.3,0l1.09-1.09a.23.23,0,0,0,0-.32.23.23,0,0,0-.31,0l-.71.72V51.23A.22.22,0,0,0,64.55,51Z" transform="translate(-48.64 -42.08)"/></g></svg>