<svg xmlns="http://www.w3.org/2000/svg" viewBox="0 0 31.05 31.05"><path d="M758.08,382.09a.62.62,0,0,0-.42.2l-4.23,4.23a.7.7,0,0,0,0,1,.71.71,0,0,0,1,0l0,0,3-3v10.3a.73.73,0,0,0,.71.71.72.72,0,0,0,.7-.71v-10.3l3,3a.71.71,0,0,0,1-1l0,0-4.24-4.23A.68.68,0,0,0,758.08,382.09Zm-10.59,10.57a.67.67,0,0,0-.41.22l-4.24,4.23a.72.72,0,0,0,0,1l4.24,4.23a.7.7,0,1,0,1-1l0,0-3-3h10.28a.75.75,0,0,0,.72-.79.73.73,0,0,0-.72-.62H745.05l3-3a.72.72,0,0,0,.21-.57.7.7,0,0,0-.76-.64Zm21.17,0a.71.71,0,0,0-.42,1.21l3,3H761a.73.73,0,0,0-.72.7.75.75,0,0,0,.72.71h10.3l-3,3a.72.72,0,0,0,0,1,.71.71,0,0,0,1,0l0,0,4.23-4.23a.73.73,0,0,0,.2-.58.78.78,0,0,0-.2-.42l-4.23-4.23A.72.72,0,0,0,768.66,392.66Zm-10.58,7.06a.71.71,0,0,0-.63.71v10.29l-3-3a.68.68,0,0,0-.57-.21.71.71,0,0,0-.64.77.69.69,0,0,0,.22.44l4.23,4.23a.69.69,0,0,0,1,0l4.24-4.23a.71.71,0,1,0-1-1l0,0-3,3V400.43A.72.72,0,0,0,758.08,399.72Z" transform="translate(-742.64 -382.08)"/></svg>