<svg xmlns="http://www.w3.org/2000/svg" viewBox="0 0 6.98 10.28"><g><path d="M724.08,435.78a4.23,4.23,0,0,0-2.58-.74,3.56,3.56,0,0,0-2,.54,3.17,3.17,0,0,0-1.38,2.78h2a2.1,2.1,0,0,1,.34-1.11,1.22,1.22,0,0,1,1.14-.53,1.28,1.28,0,0,1,1.11.43,1.68,1.68,0,0,1,.3,1,1.4,1.4,0,0,1-.27.84,1.69,1.69,0,0,1-.4.4l-.51.41a2.94,2.94,0,0,0-.94,1,5.8,5.8,0,0,0-.23,1.61h1.88a2.73,2.73,0,0,1,.1-.81,1.52,1.52,0,0,1,.5-.77l.5-.37a5,5,0,0,0,1-.94,2.92,2.92,0,0,0-.57-3.75Z" transform="translate(-718.11 -435.04)"/><rect x="2.52" y="8.29" width="2.08" height="2"/></g></svg>