<svg xmlns="http://www.w3.org/2000/svg" viewBox="0 0 14.29 15.25"><g><path d="M689.86,386.09l-.61-.51a1.54,1.54,0,0,1-.55-1.25v-.66a1.54,1.54,0,0,1,.55-1.25l.61-.51a.77.77,0,0,0,.19-1l-.89-1.52a.76.76,0,0,0-.92-.33l-.76.27a1.52,1.52,0,0,1-1.36-.14,3.25,3.25,0,0,0-.57-.33,1.54,1.54,0,0,1-.8-1.11l-.13-.76a.77.77,0,0,0-.77-.65H682.1a.76.76,0,0,0-.76.65l-.13.76a1.53,1.53,0,0,1-.78,1.11,3.16,3.16,0,0,0-.56.33,1.52,1.52,0,0,1-1.36.14l-.76-.27a.75.75,0,0,0-.91.33l-.89,1.52a.77.77,0,0,0,.19,1l.61.51a1.54,1.54,0,0,1,.55,1.25v.66a1.54,1.54,0,0,1-.55,1.25l-.61.51a.77.77,0,0,0-.19,1l.89,1.52a.76.76,0,0,0,.92.33l.76-.27a1.52,1.52,0,0,1,1.36.14,3.25,3.25,0,0,0,.57.33,1.54,1.54,0,0,1,.8,1.11l.13.76a.77.77,0,0,0,.77.65h1.75a.76.76,0,0,0,.76-.65l.13-.76a1.53,1.53,0,0,1,.81-1.11,2.84,2.84,0,0,0,.56-.33,1.52,1.52,0,0,1,1.36-.14l.76.27a.75.75,0,0,0,.88-.33l.89-1.52A.77.77,0,0,0,689.86,386.09Zm-6.86.2a2.29,2.29,0,1,1,1.62-.67A2.29,2.29,0,0,1,683,386.29Z" transform="translate(-675.86 -376.37)"/></g></svg>