<svg xmlns="http://www.w3.org/2000/svg" viewBox="0 0 16 16">
    <style>
    path {
      fill: #04151b;
    }
    @media (prefers-color-scheme: dark) {
      path {
        fill: #fff;
      }
    }
  </style>
<path d="M15.1,12.87H13.3l-.79-2.18H8.32l-.61,1.7h.76l.37-1h.52l-.55,1.51H7l1-2.66h4.88l.79,2.18h.74L11.58,4.61h-1L8.94,9.05h3l-.87-2.4-.62,1.72H9.9l1.15-3.16,1.56,4.32H8.22l2-5.42h1.72Z"/><path d="M7.18,12.14A4.91,4.91,0,0,1,4.37,13C1.94,13,.54,11,.54,8.58V8.05H1.77c.11-1.46,1-2.89,2.52-2.89A2.76,2.76,0,0,1,6,5.64L6.3,5a3.65,3.65,0,0,0-2-.53A3.27,3.27,0,0,0,1.12,7.39H.65A3.78,3.78,0,0,1,4.28,4,4.24,4.24,0,0,1,7,4.87L6.16,6.34a2.79,2.79,0,0,0-1.84-.69C3,5.65,2.27,7.05,2.27,8.42v.13H1v0c0,2.05,1.11,3.93,3.36,3.93A4.43,4.43,0,0,0,6.56,12l-.33-.62a3.61,3.61,0,0,1-1.79.51A2.68,2.68,0,0,1,1.83,9.21h.48a2.19,2.19,0,0,0,2.12,2.15,3.54,3.54,0,0,0,2-.72Z"/></svg>