<?xml version="1.0" encoding="utf-8"?>
<svg version="1.1" xmlns="http://www.w3.org/2000/svg" x="0px" y="0px"
	 viewBox="0 0 128 128">
<style type="text/css">
	.st0{fill:#2E363F;}
  @media (prefers-color-scheme: dark) {
    .st0{fill:#FFFFFF;}
  }
</style>
<path class="st0" d="M65.2,31.9v64.9H52.4V57.1L38.6,81.3h-4.2l21.7-37.8v49.7h5.5V35.6h-7.1L28.3,81.3L14.4,57.1v39.7H1.7V31.9
	h12.9l15.8,27.7l-2.1,3.6L12.5,35.6H5.3v57.6h5.5V43.5l17.5,30.4l24-42L65.2,31.9z"/>
<path class="st0" d="M127,31.9l-23.3,64.9h-2.4L79.7,35.6H74l22,61.2h-3.9L68.8,31.9h13.4l20.4,57.4l19.3-53.8h-5.7l-13.6,38.3
	l-1.9-5.5l12.9-36.4H127z"/>
</svg>
