<svg id="Layer_1" data-name="Layer 1" xmlns="http://www.w3.org/2000/svg" viewBox="0 0 117.06 50.69"><defs><style>.cls-1{fill:#ddd;}.cls-11,.cls-15,.cls-2{opacity:0.6;}.cls-2,.cls-5{font-size:9px;fill:#383838;font-family:SourceSansPro-Regular, Source Sans Pro;}.cls-3{letter-spacing:-0.01em;}.cls-4{letter-spacing:0em;}.cls-6{letter-spacing:-0.01em;}.cls-7{letter-spacing:0em;}.cls-8{letter-spacing:-0.01em;}.cls-9{letter-spacing:0em;}.cls-10{letter-spacing:0em;}.cls-12{letter-spacing:-0.01em;}.cls-13{letter-spacing:0em;}.cls-14,.cls-15{fill:#fff;}.cls-15{stroke:#000;stroke-miterlimit:10;stroke-width:0.35px;}</style></defs><ellipse class="cls-1" cx="8.06" cy="39.73" rx="8.06" ry="8.36"/><text class="cls-2" transform="translate(18.59 7.47) scale(0.96 1)">Colo<tspan class="cls-3" x="17.19" y="0">r</tspan><tspan class="cls-4" x="20.22" y="0">ed Nodes </tspan></text><text class="cls-5" transform="translate(18.28 18.27) scale(0.96 1)">High In<tspan class="cls-6" x="26.6" y="0">t</tspan><tspan class="cls-4" x="29.52" y="0">ensity Empl</tspan><tspan class="cls-7" x="73.43" y="0">o</tspan><tspan x="78.27" y="0">yment</tspan></text><text class="cls-5" transform="translate(18.12 48.05) scale(0.96 1)"><tspan class="cls-8">L</tspan><tspan class="cls-9" x="4.27" y="0">o</tspan><tspan class="cls-10" x="9.11" y="0">w In</tspan><tspan class="cls-6" x="24.66" y="0">t</tspan><tspan x="27.58" y="0">ensity Empl</tspan><tspan class="cls-9" x="71.49" y="0">o</tspan><tspan x="76.33" y="0">yment</tspan></text><g class="cls-11"><text class="cls-5" transform="translate(18.58 37.22) scale(0.96 1)">G<tspan class="cls-12" x="5.55" y="0">r</tspan><tspan class="cls-13" x="8.59" y="0">e</tspan><tspan x="13.09" y="0">y Nodes</tspan></text></g><g class="cls-11"><path class="cls-14" d="M47.68,132a8.19,8.19,0,1,1,7.89-8.18A8,8,0,0,1,47.68,132Z" transform="translate(-39.34 -113.98)"/><path d="M47.68,115.85a8,8,0,1,1-7.72,8,7.88,7.88,0,0,1,7.72-8m0-.35a8.37,8.37,0,1,0,8.06,8.36,8.22,8.22,0,0,0-8.06-8.36Z" transform="translate(-39.34 -113.98)"/></g><line class="cls-15" x1="11.96" y1="2.62" x2="1.26" y2="13.7"/><line class="cls-15" x1="9.99" y1="1.86" x2="0.63" y2="11.55"/><line class="cls-15" x1="7.16" y1="1.8" x2="0.58" y2="8.61"/><line class="cls-15" x1="13.5" y1="3.84" x2="2.5" y2="15.24"/><line class="cls-15" x1="14.84" y1="5.23" x2="3.84" y2="16.63"/><line class="cls-15" x1="15.8" y1="6.89" x2="5.57" y2="17.49"/><line class="cls-15" x1="16.23" y1="9.23" x2="7.74" y2="18.02"/><line class="cls-15" x1="15.86" y1="12.3" x2="10.75" y2="17.59"/></svg>