<svg id="Layer_1" data-name="Layer 1" xmlns="http://www.w3.org/2000/svg" viewBox="0 0 24.65 21.25"><defs><style>.cls-1{fill:#2f363f;}</style></defs><path class="cls-1" d="M334.39,422a2.79,2.79,0,0,1-1.37-.37,2.72,2.72,0,0,1-1-3.77l9.57-15.77h0a2.8,2.8,0,0,1,4.77,0l9.56,15.77a2.73,2.73,0,0,1-.42,3.3,3,3,0,0,1-2,.84Zm8.07-19.36-9.54,15.77a1.63,1.63,0,0,0-.18,1.28,1.68,1.68,0,0,0,.81,1.05,1.6,1.6,0,0,0,.84.24h19.1a1.6,1.6,0,0,0,1.2-.53,1.67,1.67,0,0,0,.27-2l-9.52-15.77a1.73,1.73,0,0,0-2.41-.55,1.87,1.87,0,0,0-.57.55Z" transform="translate(-331.62 -400.73)"/><path class="cls-1" d="M344,414.14a.52.52,0,0,1-.52-.52v-6.73a.52.52,0,1,1,1,0v6.73A.52.52,0,0,1,344,414.14Z" transform="translate(-331.62 -400.73)"/><circle class="cls-1" cx="12.33" cy="16.24" r="1.18"/><path class="cls-1" d="M334.39,422a2.79,2.79,0,0,1-1.37-.37,2.72,2.72,0,0,1-1-3.77l9.57-15.77h0a2.8,2.8,0,0,1,4.77,0l9.56,15.77a2.73,2.73,0,0,1-.42,3.3,3,3,0,0,1-2,.84Zm8.07-19.36-9.54,15.77a1.63,1.63,0,0,0-.18,1.28,1.68,1.68,0,0,0,.81,1.05,1.6,1.6,0,0,0,.84.24h19.1a1.6,1.6,0,0,0,1.2-.53,1.67,1.67,0,0,0,.27-2l-9.52-15.77a1.73,1.73,0,0,0-2.41-.55,1.87,1.87,0,0,0-.57.55Z" transform="translate(-331.62 -400.73)"/><path class="cls-1" d="M344,414.14a.52.52,0,0,1-.52-.52v-6.73a.52.52,0,1,1,1,0v6.73A.52.52,0,0,1,344,414.14Z" transform="translate(-331.62 -400.73)"/></svg>