<svg id="Layer_1" data-name="Layer 1" xmlns="http://www.w3.org/2000/svg" xmlns:xlink="http://www.w3.org/1999/xlink" viewBox="0 0 23.08 17.12"><defs><style>.cls-1{fill:none;}.cls-2{clip-path:url(#clip-path);}.cls-3{fill:#2f363f;}</style><clipPath id="clip-path" transform="translate(-274.54 -398.68)"><rect class="cls-1" x="270.05" y="391.21" width="32.05" height="32.05"/></clipPath></defs><g class="cls-2"><path class="cls-3" d="M297.61,407.85a.13.13,0,0,0,0-.06s0,0,0-.06h0L296.17,405l0,0,0-.05-.05,0-.06,0h-5.35v-3.17h0s0,0,0-.06,0-.05,0-.06v0l-1.41-2.69s0,0,0,0l-.05-.05a.1.1,0,0,0-.05,0l-.05,0h-6l-.06,0-.05,0,0,.05,0,0-1.41,2.69v0s0,0,0,.06,0,0,0,.06h0v1.52h-5.22l-.06,0-.05,0,0,0,0,0-1.41,2.69h0l0,.06s0,0,0,.06v9.28a.32.32,0,0,0,.32.32h22.43a.32.32,0,0,0,.33-.32v-7.63m-1.92-2.35,1.07,2.05h-6.12V405.5Zm-12.39-6.18h5.42l1.07,2.05h-7.56Zm-1.92,6.58h-6l1.07-2h4.92Zm-6.2.64h6.2v8.62h-6.2Zm6.84-.32V402h8v13.15h-8Zm15,8.94h-6.33v-7H297Z" transform="translate(-274.54 -398.68)"/></g></svg>